<?xml version="1.0" encoding="utf-8"?>
<!-- Generator: Adobe Illustrator 17.1.0, SVG Export Plug-In . SVG Version: 6.00 Build 0)  -->
<!DOCTYPE svg PUBLIC "-//W3C//DTD SVG 1.1//EN" "http://www.w3.org/Graphics/SVG/1.1/DTD/svg11.dtd">
<svg version="1.1" xmlns="http://www.w3.org/2000/svg" xmlns:xlink="http://www.w3.org/1999/xlink" x="0px" y="0px"
	 viewBox="0 0 120 120" enable-background="new 0 0 120 120" xml:space="preserve">
<g id="preview">
</g>
<g id="Guide_and_preview" display="none">
</g>
<g id="Background">
</g>
<g id="Media">
	<g>
		<rect x="0" y="0" fill="#FFFFFF" width="120" height="120"/>
		<g>
			<g>
				<circle fill="#7BC876" cx="45.8" cy="62.4" r="21.3"/>
				<g>
					<g>
						<polygon fill="#7BC876" points="47.2,91.4 44.4,91.4 42.9,81.8 42.9,43 44.4,33.5 47.3,33.5 48.7,43 48.7,81.8 						"/>
						<polygon fill="#7BC876" points="74.7,61 74.7,63.9 65.2,65.3 26.4,65.3 16.9,63.9 16.9,61 26.4,59.5 65.2,59.5 						"/>
					</g>
				</g>
				<g>
					<g>
						<polygon fill="#7BC876" points="67.3,81.9 65.3,83.9 57.5,78.2 30,50.7 24.3,43 26.4,40.9 34.1,46.6 61.6,74.1 						"/>
						<polygon fill="#7BC876" points="65.3,41 67.3,43 61.6,50.7 34.1,78.2 26.4,83.9 24.3,81.9 30,74.1 57.5,46.6 						"/>
					</g>
				</g>
				<circle fill="#FFFFFF" cx="45.8" cy="62.4" r="15.8"/>
			</g>
			<g>
				<circle fill="#E0E0E0" cx="82.4" cy="33.4" r="15.3"/>
				<g>
					<polygon fill="#E0E0E0" points="87,53.7 85,54.1 82.8,47.5 77.9,19.9 77.8,13 79.9,12.7 82.1,19.2 86.9,46.8 					"/>
					<polygon fill="#E0E0E0" points="102.8,28.8 103.1,30.8 96.6,33 69,37.8 62.1,38 61.7,35.9 68.3,33.7 95.8,28.9 					"/>
				</g>
				<g>
					<polygon fill="#E0E0E0" points="100.1,44.5 98.9,46.2 92.7,43.1 69.8,27 64.8,22.2 66,20.5 72.2,23.6 95.1,39.7 					"/>
					<polygon fill="#E0E0E0" points="93.6,15.7 95.2,16.9 92.2,23.1 76.1,46 71.3,51 69.6,49.8 72.7,43.6 88.8,20.7 					"/>
				</g>
				<circle fill="#FFFFFF" cx="82.4" cy="33.4" r="11.4"/>
			</g>
			<g>
				<circle fill="#EEEEEE" cx="77.4" cy="92.6" r="11.3"/>
				<g>
					<polygon fill="#EEEEEE" points="71.5,106.9 70.2,106.2 71.6,101.3 80.4,82.6 83.2,78.3 84.6,79 83.2,83.9 74.4,102.6 					"/>
					<polygon fill="#EEEEEE" points="91.7,98.4 91,99.8 86.1,98.4 67.4,89.6 63.1,86.8 63.7,85.4 68.7,86.8 87.4,95.6 					"/>
				</g>
				<g>
					<polygon fill="#EEEEEE" points="83.4,106.8 81.9,107.3 79.5,102.9 72.4,83.4 71.4,78.4 72.9,77.8 75.3,82.3 82.4,101.8 					
						"/>
					<polygon fill="#EEEEEE" points="91.6,86.6 92.1,88.1 87.6,90.5 68.2,97.6 63.2,98.6 62.6,97.1 67.1,94.7 86.6,87.6 					"/>
				</g>
				<circle fill="#FFFFFF" cx="77.4" cy="92.6" r="8.4"/>
			</g>
		</g>
	</g>
</g>
<g id="Illustrations">
</g>
</svg>
