<?xml version="1.0" encoding="utf-8"?>
<!-- Generator: Adobe Illustrator 17.1.0, SVG Export Plug-In . SVG Version: 6.00 Build 0)  -->
<!DOCTYPE svg PUBLIC "-//W3C//DTD SVG 1.1//EN" "http://www.w3.org/Graphics/SVG/1.1/DTD/svg11.dtd">
<svg version="1.1" xmlns="http://www.w3.org/2000/svg" xmlns:xlink="http://www.w3.org/1999/xlink" x="0px" y="0px"
	 viewBox="0 0 120 120" enable-background="new 0 0 120 120" xml:space="preserve">
<g id="preview">
</g>
<g id="Guide_and_preview" display="none">
</g>
<g id="Background">
</g>
<g id="Media">
	<g>
		<defs>
			<rect id="SVGID_27_" x="0" y="0" width="120" height="120"/>
		</defs>
		<use xlink:href="#SVGID_27_"  overflow="visible" fill="#FFFFFF"/>
		<clipPath id="SVGID_2_">
			<use xlink:href="#SVGID_27_"  overflow="visible"/>
		</clipPath>
		<g clip-path="url(#SVGID_2_)">
			<g>
				<g>
					<g>
						<path fill="#EEEEEE" d="M86.9,102.4H27.7c-1.8,0-3.2-1.1-3.2-2.4V37.9c0-1.3,1.4-2.4,3.2-2.4h59.2c1.8,0,3.2,1.1,3.2,2.4V100
							C90.1,101.3,88.7,102.4,86.9,102.4z"/>
					</g>
				</g>
				
					<line fill="none" stroke="#FFFFFF" stroke-width="2" stroke-linecap="round" stroke-miterlimit="10" x1="41.5" y1="53.1" x2="71.6" y2="53.1"/>
				
					<line fill="none" stroke="#FFFFFF" stroke-width="2" stroke-linecap="round" stroke-miterlimit="10" x1="41.5" y1="64.6" x2="71.6" y2="64.6"/>
			</g>
			<g>
				<g>
					<g>
						<path fill="#7BC876" d="M97.5,94.9H38.3c-1.8,0-3.2-1.1-3.2-2.4V30.4c0-1.3,1.4-2.4,3.2-2.4h59.2c1.8,0,3.2,1.1,3.2,2.4v62.2
							C100.7,93.9,99.3,94.9,97.5,94.9z"/>
					</g>
				</g>
				
					<line fill="none" stroke="#FFFFFF" stroke-width="2" stroke-linecap="round" stroke-miterlimit="10" x1="52.1" y1="45.7" x2="82.2" y2="45.7"/>
				
					<line fill="none" stroke="#FFFFFF" stroke-width="2" stroke-linecap="round" stroke-miterlimit="10" x1="52.1" y1="57.1" x2="82.2" y2="57.1"/>
			</g>
		</g>
		<circle clip-path="url(#SVGID_2_)" fill="#E0E0E0" cx="97.5" cy="29.7" r="9.8"/>
	</g>
</g>
<g id="Illustrations">
</g>
</svg>
