<?xml version="1.0" encoding="utf-8"?>
<!-- Generator: Adobe Illustrator 17.1.0, SVG Export Plug-In . SVG Version: 6.00 Build 0)  -->
<!DOCTYPE svg PUBLIC "-//W3C//DTD SVG 1.1//EN" "http://www.w3.org/Graphics/SVG/1.1/DTD/svg11.dtd">
<svg version="1.1" xmlns="http://www.w3.org/2000/svg" xmlns:xlink="http://www.w3.org/1999/xlink" x="0px" y="0px"
	 viewBox="0 0 120 120" enable-background="new 0 0 120 120" xml:space="preserve">
<g id="preview">
</g>
<g id="Guide_and_preview" display="none">
</g>
<g id="Background">
</g>
<g id="Media">
	<g>
		<rect x="0" y="0" fill="#FFFFFF" width="120" height="120"/>
		<g>
			<g>
				<path fill="#EEEEEE" d="M88.1,54.4H13.9c-2.2,0-4-1.8-4-4V28.6c0-2.2,1.8-4,4-4h74.3c2.2,0,4,1.8,4,4v21.8
					C92.1,52.6,90.3,54.4,88.1,54.4z"/>
			</g>
			<g>
				<path fill="#E0E0E0" d="M95.8,76H21.5c-2.2,0-4-1.8-4-4V50.2c0-2.2,1.8-4,4-4h74.3c2.2,0,4,1.8,4,4V72
					C99.7,74.2,97.9,76,95.8,76z"/>
			</g>
			<g>
				<path fill="#7BC876" d="M106.1,95.4H31.9c-2.2,0-4-1.8-4-4V69.6c0-2.2,1.8-4,4-4h74.3c2.2,0,4,1.8,4,4v21.8
					C110.1,93.6,108.3,95.4,106.1,95.4z"/>
			</g>
		</g>
	</g>
</g>
<g id="Illustrations">
</g>
</svg>
