<?xml version="1.0" encoding="utf-8"?>
<!-- Generator: Adobe Illustrator 21.0.0, SVG Export Plug-In . SVG Version: 6.00 Build 0)  -->
<svg version="1.1" id="Layer_1" xmlns="http://www.w3.org/2000/svg" xmlns:xlink="http://www.w3.org/1999/xlink" x="0px" y="0px"
	 viewBox="0 0 2000 571.9" style="enable-background:new 0 0 2000 571.9;" xml:space="preserve">
<style type="text/css">
	.st0{fill:#FFFFFF;}
</style>
<g>
	<path class="st0" d="M746.2,254.1c-36.6,0-59.4,27.2-59.4,74.3c0,43.3,20,76.6,58.8,76.6c37.2,0,61.6-30,61.6-77.7
		C807.2,276.8,780,254.1,746.2,254.1z"/>
	<path class="st0" d="M1727.2,380c0,16.1,7.8,28.9,29.4,28.9c25.5,0,52.7-18.3,54.4-59.9c-11.6-1.7-24.4-3.3-36.1-3.3
		C1749.4,345.6,1727.2,352.8,1727.2,380z"/>
	<path class="st0" d="M0,0v571.9h2000V0H0z M581.9,454.4H477V313.5c0-43.3-14.4-59.9-42.7-59.9c-34.4,0-48.3,24.4-48.3,59.4V400
		h33.3v54.4H314.5V313.5c0-43.3-14.4-59.9-42.7-59.9c-34.4,0-48.3,24.4-48.3,59.4V400h47.7v54.4H118.7V400h33.3V258.5h-33.3v-54.4
		h104.8v37.7c15-26.6,41.1-42.7,76-42.7c36.1,0,69.3,17.2,81.6,53.8c13.9-33.3,42.2-53.8,81.6-53.8c44.9,0,86,27.2,86,86.5V400h33.3
		V454.4z M743.4,459.9c-77.1,0-130.4-47.1-130.4-127c0-73.2,44.4-133.7,134.3-133.7S881,259.6,881,329.5
		C881,409.4,823.3,459.9,743.4,459.9z M1146.9,454.4H928.3l-7.2-37.7l137.6-158.1h-78.2l-11.1,38.8l-51.6-5.6l8.9-87.7h219.7
		l5.6,37.7L1013.2,400h81l11.7-38.8l56.6,5.5L1146.9,454.4z M1289.7,454.4h-74.9v-89.9h74.9V454.4z M1289.7,294h-74.9v-89.9h74.9
		V294z M1336.5,454.4l108.2-381.7h70.5L1407,454.4H1336.5z M1481.9,454.4L1590,72.7h70.5l-108.2,381.7H1481.9z M1865.9,459.9
		c-33.3,0-51.6-19.4-54.9-49.9c-14.4,25.5-39.9,49.9-80.4,49.9c-36.1,0-77.1-19.4-77.1-71.6c0-61.6,59.4-76,116.5-76
		c13.9,0,28.3,0.6,41.1,2.2v-8.3c0-25.5-0.6-56-41.1-56c-15,0-26.6,1.1-38.3,7.2l-8.1,28.2l-57.1-6.1l9.8-57.6
		c43.8-17.8,66-22.7,107.1-22.7c53.8,0,99.3,27.7,99.3,84.9v108.7c0,14.4,5.6,19.4,17.2,19.4c3.3,0,6.7-0.6,10.5-1.7l0.6,37.7
		C1897.5,455.5,1881.4,459.9,1865.9,459.9z"/>
</g>
</svg>
