<?xml version="1.0" encoding="utf-8"?>
<!-- Generator: Adobe Illustrator 17.1.0, SVG Export Plug-In . SVG Version: 6.00 Build 0)  -->
<!DOCTYPE svg PUBLIC "-//W3C//DTD SVG 1.1//EN" "http://www.w3.org/Graphics/SVG/1.1/DTD/svg11.dtd">
<svg version="1.1" xmlns="http://www.w3.org/2000/svg" xmlns:xlink="http://www.w3.org/1999/xlink" x="0px" y="0px"
	 viewBox="0 0 607.1 444.1" enable-background="new 0 0 607.1 444.1" xml:space="preserve">
<g id="preview">
</g>
<g id="Guide_and_preview" display="none">
</g>
<g id="Background">
</g>
<g id="Media">
	<g>
		<g>
			<path fill="#EEEEEE" d="M86.1,88.4H283c3.7,0,6.8-1.7,6.8-3.8v-0.1c0-2.1-3-3.8-6.8-3.8H86.1c-3.7,0-6.8,1.7-6.8,3.8v0.1
				C79.3,86.7,82.4,88.4,86.1,88.4z"/>
			<path fill="#EEEEEE" d="M291.6,174.2h196.9c3.7,0,6.8-1.7,6.8-3.8v-0.1c0-2.1-3-3.8-6.8-3.8H291.6c-3.7,0-6.8,1.7-6.8,3.8v0.1
				C284.8,172.5,287.8,174.2,291.6,174.2z"/>
			<path fill="#EEEEEE" d="M86.1,257.9H283c3.7,0,6.8-1.7,6.8-3.8V254c0-2.1-3-3.8-6.8-3.8H86.1c-3.7,0-6.8,1.7-6.8,3.8v0.1
				C79.3,256.2,82.4,257.9,86.1,257.9z"/>
			<path fill="#EEEEEE" d="M288.7,341.4h199.7c3.8,0,6.9-1.7,6.9-3.8v-0.1c0-2.1-3.1-3.8-6.9-3.8H288.7c-3.8,0-6.9,1.7-6.9,3.8v0.1
				C281.8,339.7,284.9,341.4,288.7,341.4z"/>
			<path fill="#EEEEEE" d="M286.3,426.6L286.3,426.6c-2.5,0-4.5-3.2-4.5-7.1V24.3c0-3.9,2-7.1,4.4-7.1h0.1c2.4,0,4.4,3.2,4.4,7.1
				v395.2C290.7,423.4,288.7,426.6,286.3,426.6z"/>
			<circle fill="#EEEEEE" cx="286.3" cy="17.2" r="13.8"/>
			<circle fill="#EEEEEE" cx="286.3" cy="426.6" r="13.8"/>
		</g>
		<g>
			<rect x="2.8" y="70.8" fill="#7BC876" width="20.9" height="20.9"/>
			<rect x="30.7" y="56.4" fill="#E0E0E0" width="20.9" height="20.9"/>
			<rect x="30.7" y="85.6" fill="#E0E0E0" width="20.9" height="20.9"/>
			<rect x="2.8" y="100.2" fill="#E0E0E0" width="20.9" height="20.9"/>
		</g>
		<g>
			<path fill="#E0E0E0" d="M583,190.1h-37.1c-1.1,0-2-0.9-2-2v-52.7c0-1.1,0.9-2,2-2H583c1.1,0,2,0.9,2,2v52.7
				C585,189.2,584.1,190.1,583,190.1z"/>
			
				<line fill="none" stroke="#FFFFFF" stroke-width="3" stroke-linecap="round" stroke-miterlimit="10" x1="576.8" y1="153.4" x2="560.1" y2="170.1"/>
			<path fill="#7BC876" d="M568.4,199.7h-37.1c-1.1,0-2-0.9-2-2V145c0-1.1,0.9-2,2-2h37.1c1.1,0,2,0.9,2,2v52.7
				C570.4,198.8,569.5,199.7,568.4,199.7z"/>
			
				<line fill="none" stroke="#FFFFFF" stroke-width="3" stroke-linecap="round" stroke-miterlimit="10" x1="556.2" y1="164.8" x2="540.6" y2="180.3"/>
			
				<line fill="none" stroke="#FFFFFF" stroke-width="3" stroke-linecap="round" stroke-miterlimit="10" x1="540.6" y1="180.3" x2="540.6" y2="169"/>
			
				<line fill="none" stroke="#FFFFFF" stroke-width="3" stroke-linecap="round" stroke-miterlimit="10" x1="540.6" y1="180.3" x2="552.5" y2="180.3"/>
		</g>
		<g>
			<g>
				<g>
					<path fill="#E0E0E0" d="M56.4,272.4H19.3c-1.1,0-2-0.9-2-2v-52.7c0-1.1,0.9-2,2-2h37.1c1.1,0,2,0.9,2,2v52.7
						C58.4,271.5,57.5,272.4,56.4,272.4z"/>
					<path fill="#7BC876" d="M41.8,282H4.8c-1.1,0-2-0.9-2-2v-52.7c0-1.1,0.9-2,2-2h37.1c1.1,0,2,0.9,2,2V280
						C43.8,281.1,42.9,282,41.8,282z"/>
				</g>
				<circle fill="#FFFFFF" cx="41.8" cy="277.9" r="14.5"/>
				<g>
					<g>
						<path fill="#7BC876" d="M51.2,272.7l-11.9,11.9c-0.3,0.3-0.9,0.3-1.2,0l-0.3-0.3l0,0l-5.2-5.2c-0.3-0.3-0.3-0.9,0-1.2l0.4-0.4
							c0.3-0.3,0.9-0.3,1.2,0l4.6,4.6l10.9-10.9c0.3-0.3,0.9-0.3,1.2,0l0.3,0.3C51.5,271.8,51.5,272.3,51.2,272.7z"/>
					</g>
				</g>
			</g>
			
				<line fill="none" stroke="#FFFFFF" stroke-width="2" stroke-linecap="round" stroke-miterlimit="10" x1="13.4" y1="240.2" x2="32.2" y2="240.2"/>
			
				<line fill="none" stroke="#FFFFFF" stroke-width="2" stroke-linecap="round" stroke-miterlimit="10" x1="13.4" y1="249.9" x2="32.2" y2="249.9"/>
		</g>
		<g>
			<g>
				<g>
					<g>
						<path fill="#E0E0E0" d="M602.3,364.9h-37.1c-1.1,0-2-0.9-2-2v-52.7c0-1.1,0.9-2,2-2h37.1c1.1,0,2,0.9,2,2v52.7
							C604.3,364,603.4,364.9,602.3,364.9z"/>
					</g>
				</g>
				
					<line fill="none" stroke="#FFFFFF" stroke-width="2" stroke-linecap="round" stroke-miterlimit="10" x1="573.9" y1="323.1" x2="592.7" y2="323.1"/>
				
					<line fill="none" stroke="#FFFFFF" stroke-width="2" stroke-linecap="round" stroke-miterlimit="10" x1="573.9" y1="332.8" x2="592.7" y2="332.8"/>
			</g>
			<g>
				<g>
					<g>
						<path fill="#E0E0E0" d="M551.9,364.9h-37.1c-1.1,0-2-0.9-2-2v-52.7c0-1.1,0.9-2,2-2h37.1c1.1,0,2,0.9,2,2v52.7
							C553.9,364,553.1,364.9,551.9,364.9z"/>
					</g>
				</g>
				
					<line fill="none" stroke="#FFFFFF" stroke-width="2" stroke-linecap="round" stroke-miterlimit="10" x1="523.5" y1="323.1" x2="542.4" y2="323.1"/>
				
					<line fill="none" stroke="#FFFFFF" stroke-width="2" stroke-linecap="round" stroke-miterlimit="10" x1="523.5" y1="332.8" x2="542.4" y2="332.8"/>
			</g>
			<g>
				<g>
					<g>
						<path fill="#7BC876" d="M576.2,374.6h-37.1c-1.1,0-2-0.9-2-2v-52.7c0-1.1,0.9-2,2-2h37.1c1.1,0,2,0.9,2,2v52.7
							C578.2,373.7,577.3,374.6,576.2,374.6z"/>
					</g>
				</g>
				
					<line fill="none" stroke="#FFFFFF" stroke-width="2" stroke-linecap="round" stroke-miterlimit="10" x1="547.7" y1="332.8" x2="566.6" y2="332.8"/>
				
					<line fill="none" stroke="#FFFFFF" stroke-width="2" stroke-linecap="round" stroke-miterlimit="10" x1="547.7" y1="342.5" x2="566.6" y2="342.5"/>
			</g>
			<g>
				<circle fill="#FFFFFF" cx="538.5" cy="355.4" r="5.1"/>
				<circle fill="#FFFFFF" cx="557.6" cy="355.4" r="5.1"/>
				<circle fill="#FFFFFF" cx="576.8" cy="355.4" r="5.1"/>
			</g>
		</g>
	</g>
</g>
<g id="Illustrations">
</g>
</svg>
