<?xml version="1.0" encoding="utf-8"?>
<!-- Generator: Adobe Illustrator 17.1.0, SVG Export Plug-In . SVG Version: 6.00 Build 0)  -->
<!DOCTYPE svg PUBLIC "-//W3C//DTD SVG 1.1//EN" "http://www.w3.org/Graphics/SVG/1.1/DTD/svg11.dtd">
<svg version="1.1" xmlns="http://www.w3.org/2000/svg" xmlns:xlink="http://www.w3.org/1999/xlink" x="0px" y="0px"
	 viewBox="0 0 120 120" enable-background="new 0 0 120 120" xml:space="preserve">
<g id="preview">
</g>
<g id="Guide_and_preview" display="none">
</g>
<g id="Background">
</g>
<g id="Media">
	<g>
		
			<rect x="0.3" y="0.3" transform="matrix(1 -4.406833e-003 4.406833e-003 1 -0.2638 0.265)" fill="#FFFFFF" width="119.4" height="119.4"/>
		<g>
			<path fill="#E0E0E0" d="M48.4,45.5l0.2,38.2c0,2,1.3,3.6,2.8,3.6l32.3-0.1c0,0,2.6,9.3,11.4,11.1c0,0-4.9-4-4-11.1l6.7,0
				c1.5,0,2.8-1.6,2.8-3.6l-0.2-38.2c0-2-1.3-3.6-2.8-3.6l-46.4,0.2C49.6,41.9,48.4,43.5,48.4,45.5z"/>
			<path opacity="0.8" fill="#7BC876" d="M72.2,25.2l0.2,38.4c0,2.2-1.4,4-3,4l-32.5,0.1c0,0-2.5,9.4-11.4,11.3
				c0,0,4.9-4.1,3.9-11.3l-6.5,0c-1.7,0-3.1-1.8-3.1-4l-0.2-38.4c0-2,1.2-3.7,2.8-3.7l47.1-0.2C70.9,21.6,72.2,23.2,72.2,25.2z"/>
		</g>
	</g>
</g>
<g id="Illustrations">
</g>
</svg>
