<?xml version="1.0" encoding="utf-8"?>
<!-- Generator: Adobe Illustrator 17.1.0, SVG Export Plug-In . SVG Version: 6.00 Build 0)  -->
<!DOCTYPE svg PUBLIC "-//W3C//DTD SVG 1.1//EN" "http://www.w3.org/Graphics/SVG/1.1/DTD/svg11.dtd">
<svg version="1.1" xmlns="http://www.w3.org/2000/svg" xmlns:xlink="http://www.w3.org/1999/xlink" x="0px" y="0px"
	 viewBox="0 0 120 120" enable-background="new 0 0 120 120" xml:space="preserve">
<g id="preview">
</g>
<g id="Guide_and_preview" display="none">
</g>
<g id="Background">
</g>
<g id="Media">
	<g>
		<rect x="0" y="0" fill="#FFFFFF" width="120" height="120"/>
		<g>
			<path opacity="0.8" fill="#7BC876" d="M38.6,52.4l-0.1,10.1c0,1.4,1.2,2.5,2.7,2.5l25.3-0.1c1.3,0,2.4,1,2.4,2.3l0,6.9
				c0,1.2-1.1,2.3-2.4,2.3l-25.4,0.1c-1.5,0-2.7,1.1-2.7,2.5l-0.1,10.2c0,2.2-2.9,3.3-4.5,1.8L14.4,72.6c-1-1-1-2.6,0-3.6L34,50.6
				C35.7,49,38.6,50.1,38.6,52.4z"/>
			<path fill="#E0E0E0" d="M81.4,31.5l0.1,10.1c0,1.4-1.2,2.5-2.7,2.5l-27.1,0c-1.3,0-2.4,1-2.4,2.3l0,6.9c0,1.3,1.1,2.3,2.4,2.3
				l27.3,0c1.5,0,2.7,1.1,2.7,2.5l0.1,10.2c0,2.2,2.9,3.3,4.5,1.8l19.3-18.3c1-1,1-2.6,0-3.6L85.9,29.7
				C84.2,28.1,81.4,29.2,81.4,31.5z"/>
		</g>
	</g>
</g>
<g id="Illustrations">
</g>
</svg>
