<?xml version="1.0" encoding="utf-8"?>
<!-- Generator: Adobe Illustrator 17.1.0, SVG Export Plug-In . SVG Version: 6.00 Build 0)  -->
<!DOCTYPE svg PUBLIC "-//W3C//DTD SVG 1.1//EN" "http://www.w3.org/Graphics/SVG/1.1/DTD/svg11.dtd">
<svg version="1.1" xmlns="http://www.w3.org/2000/svg" xmlns:xlink="http://www.w3.org/1999/xlink" x="0px" y="0px"
	 viewBox="0 0 607.1 499.8" enable-background="new 0 0 607.1 499.8" xml:space="preserve">
<g id="preview">
</g>
<g id="Guide_and_preview" display="none">
</g>
<g id="Background">
</g>
<g id="Media">
	<g>
		<g>
			<path fill="#EEEEEE" d="M85.1,113.5H282c3.7,0,6.8-1.7,6.8-3.8v-0.1c0-2.1-3-3.8-6.8-3.8H85.1c-3.7,0-6.8,1.7-6.8,3.8v0.1
				C78.4,111.8,81.4,113.5,85.1,113.5z"/>
			<path fill="#EEEEEE" d="M290.6,199.2h196.9c3.7,0,6.8-1.7,6.8-3.8v-0.1c0-2.1-3-3.8-6.8-3.8H290.6c-3.7,0-6.8,1.7-6.8,3.8v0.1
				C283.8,197.5,286.9,199.2,290.6,199.2z"/>
			<path fill="#EEEEEE" d="M85.1,282.9H282c3.7,0,6.8-1.7,6.8-3.8V279c0-2.1-3-3.8-6.8-3.8H85.1c-3.7,0-6.8,1.7-6.8,3.8v0.1
				C78.4,281.2,81.4,282.9,85.1,282.9z"/>
			<path fill="#EEEEEE" d="M287.7,366.4h199.7c3.8,0,6.9-1.7,6.9-3.8v-0.1c0-2.1-3.1-3.8-6.9-3.8H287.7c-3.8,0-6.9,1.7-6.9,3.8v0.1
				C280.9,364.7,283.9,366.4,287.7,366.4z"/>
			<path fill="#EEEEEE" d="M285.3,451.6L285.3,451.6c-2.5,0-4.5-3.2-4.5-7.1V49.3c0-3.9,2-7.1,4.4-7.1h0.1c2.4,0,4.4,3.2,4.4,7.1
				v395.2C289.7,448.5,287.8,451.6,285.3,451.6z"/>
			<circle fill="#EEEEEE" cx="285.3" cy="42.2" r="13.8"/>
			<circle fill="#EEEEEE" cx="285.3" cy="451.6" r="13.8"/>
		</g>
		<g>
			<text transform="matrix(0.9699 0 0 1 85.4036 146.1062)" fill="#616161" font-family="'Lato-Regular'" font-size="16">Pick your team and project</text>
		</g>
		<g>
			<rect x="285.7" y="213" fill="none" width="208.3" height="16.7"/>
			<text transform="matrix(1 0 0 1 320.2545 226.7234)" fill="#616161" font-family="'Lato-Regular'" font-size="16">Submit a suggestion</text>
		</g>
		<g>
			<rect x="79.8" y="301.3" fill="none" width="191.7" height="50.9"/>
			<text transform="matrix(1 0 0 1 86.0618 315.0117)"><tspan x="0" y="0" fill="#616161" font-family="'Lato-Regular'" font-size="16">Suggestion gets approved </tspan><tspan x="17.1" y="26" fill="#616161" font-family="'Lato-Regular'" font-size="16">by a trusted localizer</tspan></text>
		</g>
		<g>
			<rect x="298.7" y="379.8" fill="none" width="195.8" height="21.9"/>
			<text transform="matrix(1 0 0 1 318.2955 393.5806)" fill="#616161" font-family="'Lato-Regular'" font-size="16">And it lands in product</text>
		</g>
		<text transform="matrix(1 0 0 1 206.6317 496.1952)" font-family="'Lato-Regular'" font-size="16">Show it to your friends</text>
		<g>
			<g>
				<g>
					<text transform="matrix(1 0 0 1 221.7273 13.7327)" font-family="'Lato-Regular'" font-size="16">Create an account</text>
				</g>
			</g>
		</g>
		<g>
			<rect x="1.8" y="95.8" fill="#7BC876" width="20.9" height="20.9"/>
			<rect x="29.7" y="81.5" fill="#E0E0E0" width="20.9" height="20.9"/>
			<rect x="29.7" y="110.6" fill="#E0E0E0" width="20.9" height="20.9"/>
			<rect x="1.8" y="125.3" fill="#E0E0E0" width="20.9" height="20.9"/>
		</g>
		<g>
			<path fill="#E0E0E0" d="M582,215.2H545c-1.1,0-2-0.9-2-2v-52.7c0-1.1,0.9-2,2-2H582c1.1,0,2,0.9,2,2v52.7
				C584,214.3,583.1,215.2,582,215.2z"/>
			
				<line fill="none" stroke="#FFFFFF" stroke-width="3" stroke-linecap="round" stroke-miterlimit="10" x1="575.8" y1="178.4" x2="559.1" y2="195.1"/>
			<path fill="#7BC876" d="M567.4,224.7h-37.1c-1.1,0-2-0.9-2-2V170c0-1.1,0.9-2,2-2h37.1c1.1,0,2,0.9,2,2v52.7
				C569.4,223.8,568.6,224.7,567.4,224.7z"/>
			
				<line fill="none" stroke="#FFFFFF" stroke-width="3" stroke-linecap="round" stroke-miterlimit="10" x1="555.2" y1="189.8" x2="539.7" y2="205.4"/>
			
				<line fill="none" stroke="#FFFFFF" stroke-width="3" stroke-linecap="round" stroke-miterlimit="10" x1="539.7" y1="205.4" x2="539.7" y2="194"/>
			
				<line fill="none" stroke="#FFFFFF" stroke-width="3" stroke-linecap="round" stroke-miterlimit="10" x1="539.7" y1="205.4" x2="551.6" y2="205.4"/>
		</g>
		<g>
			<g>
				<g>
					<path fill="#E0E0E0" d="M55.4,297.5H18.4c-1.1,0-2-0.9-2-2v-52.7c0-1.1,0.9-2,2-2h37.1c1.1,0,2,0.9,2,2v52.7
						C57.4,296.6,56.5,297.5,55.4,297.5z"/>
					<path fill="#7BC876" d="M40.9,307H3.8c-1.1,0-2-0.9-2-2v-52.7c0-1.1,0.9-2,2-2h37.1c1.1,0,2,0.9,2,2V305
						C42.9,306.1,42,307,40.9,307z"/>
				</g>
				<circle fill="#FFFFFF" cx="40.9" cy="302.9" r="14.5"/>
				<g>
					<g>
						<path fill="#7BC876" d="M50.2,297.7l-11.9,11.9c-0.3,0.3-0.9,0.3-1.2,0l-0.3-0.3l0,0l-5.2-5.2c-0.3-0.3-0.3-0.9,0-1.2l0.4-0.4
							c0.3-0.3,0.9-0.3,1.2,0l4.6,4.6l10.9-10.9c0.3-0.3,0.9-0.3,1.2,0l0.3,0.3C50.6,296.8,50.6,297.4,50.2,297.7z"/>
					</g>
				</g>
			</g>
			
				<line fill="none" stroke="#FFFFFF" stroke-width="2" stroke-linecap="round" stroke-miterlimit="10" x1="12.4" y1="265.3" x2="31.3" y2="265.3"/>
			
				<line fill="none" stroke="#FFFFFF" stroke-width="2" stroke-linecap="round" stroke-miterlimit="10" x1="12.4" y1="274.9" x2="31.3" y2="274.9"/>
		</g>
		<g>
			<g>
				<g>
					<g>
						<path fill="#E0E0E0" d="M601.4,389.9h-37.1c-1.1,0-2-0.9-2-2v-52.7c0-1.1,0.9-2,2-2h37.1c1.1,0,2,0.9,2,2v52.7
							C603.4,389,602.5,389.9,601.4,389.9z"/>
					</g>
				</g>
				
					<line fill="none" stroke="#FFFFFF" stroke-width="2" stroke-linecap="round" stroke-miterlimit="10" x1="572.9" y1="348.2" x2="591.8" y2="348.2"/>
				
					<line fill="none" stroke="#FFFFFF" stroke-width="2" stroke-linecap="round" stroke-miterlimit="10" x1="572.9" y1="357.8" x2="591.8" y2="357.8"/>
			</g>
			<g>
				<g>
					<g>
						<path fill="#E0E0E0" d="M551,389.9h-37.1c-1.1,0-2-0.9-2-2v-52.7c0-1.1,0.9-2,2-2H551c1.1,0,2,0.9,2,2v52.7
							C553,389,552.1,389.9,551,389.9z"/>
					</g>
				</g>
				
					<line fill="none" stroke="#FFFFFF" stroke-width="2" stroke-linecap="round" stroke-miterlimit="10" x1="522.5" y1="348.2" x2="541.4" y2="348.2"/>
				
					<line fill="none" stroke="#FFFFFF" stroke-width="2" stroke-linecap="round" stroke-miterlimit="10" x1="522.5" y1="357.8" x2="541.4" y2="357.8"/>
			</g>
			<g>
				<g>
					<g>
						<path fill="#7BC876" d="M575.2,399.6h-37.1c-1.1,0-2-0.9-2-2v-52.7c0-1.1,0.9-2,2-2h37.1c1.1,0,2,0.9,2,2v52.7
							C577.2,398.7,576.3,399.6,575.2,399.6z"/>
					</g>
				</g>
				
					<line fill="none" stroke="#FFFFFF" stroke-width="2" stroke-linecap="round" stroke-miterlimit="10" x1="546.8" y1="357.9" x2="565.6" y2="357.9"/>
				
					<line fill="none" stroke="#FFFFFF" stroke-width="2" stroke-linecap="round" stroke-miterlimit="10" x1="546.8" y1="367.5" x2="565.6" y2="367.5"/>
			</g>
			<g>
				<circle fill="#FFFFFF" cx="537.5" cy="380.5" r="5.1"/>
				<circle fill="#FFFFFF" cx="556.7" cy="380.5" r="5.1"/>
				<circle fill="#FFFFFF" cx="575.8" cy="380.5" r="5.1"/>
			</g>
		</g>
	</g>
</g>
<g id="Illustrations">
</g>
</svg>
