<?xml version="1.0" encoding="utf-8"?>
<!-- Generator: Adobe Illustrator 17.1.0, SVG Export Plug-In . SVG Version: 6.00 Build 0)  -->
<!DOCTYPE svg PUBLIC "-//W3C//DTD SVG 1.1//EN" "http://www.w3.org/Graphics/SVG/1.1/DTD/svg11.dtd">
<svg version="1.1" xmlns="http://www.w3.org/2000/svg" xmlns:xlink="http://www.w3.org/1999/xlink" x="0px" y="0px"
	 viewBox="0 0 27.4 27.4" enable-background="new 0 0 27.4 27.4" xml:space="preserve">
<g id="preview">
</g>
<g id="Guide_and_preview" display="none">
</g>
<g id="Background">
</g>
<g id="Media">
	<g>
		<g>
			<path fill="#E0E0E0" d="M25.3,7.3c-1.2-2.1-2.8-3.7-4.9-4.9c-2.1-1.2-4.3-1.8-6.7-1.8C11.3,0.6,9,1.2,7,2.4
				C4.9,3.6,3.3,5.2,2.1,7.3C0.9,9.3,0.3,11.6,0.3,14c0,2.9,0.9,5.6,2.6,7.9c1.7,2.3,3.9,4,6.6,4.9c0.3,0.1,0.5,0,0.7-0.1
				c0.2-0.1,0.2-0.3,0.2-0.5c0,0,0-0.3,0-0.9c0-0.6,0-1.1,0-1.6L10,23.7c-0.3,0-0.6,0.1-1,0.1c-0.4,0-0.8,0-1.2-0.1
				c-0.4-0.1-0.8-0.3-1.2-0.5c-0.4-0.3-0.6-0.6-0.8-1.1l-0.2-0.4c-0.1-0.3-0.3-0.6-0.6-0.9c-0.3-0.3-0.5-0.5-0.8-0.7L4.2,20
				c-0.1-0.1-0.2-0.1-0.2-0.2c-0.1-0.1-0.1-0.2-0.2-0.2c0-0.1,0-0.1,0.1-0.2c0.1-0.1,0.3-0.1,0.5-0.1l0.3,0.1c0.2,0,0.5,0.2,0.9,0.4
				C6,20,6.3,20.3,6.5,20.7c0.3,0.5,0.6,0.8,1,1.1c0.4,0.3,0.8,0.4,1.1,0.4c0.4,0,0.7,0,1-0.1c0.3-0.1,0.5-0.1,0.8-0.3
				c0.1-0.8,0.4-1.4,0.9-1.8c-0.7-0.1-1.3-0.2-1.8-0.3c-0.5-0.1-1.1-0.4-1.6-0.7c-0.6-0.3-1-0.7-1.4-1.2C6,17.3,5.7,16.7,5.5,16
				c-0.2-0.8-0.4-1.6-0.4-2.6c0-1.4,0.5-2.6,1.4-3.6C6.1,8.7,6.1,7.5,6.6,6.2c0.3-0.1,0.8,0,1.5,0.2c0.7,0.3,1.2,0.5,1.5,0.7
				c0.3,0.2,0.6,0.3,0.7,0.5c1.1-0.3,2.2-0.5,3.4-0.5s2.3,0.2,3.4,0.5l0.7-0.4c0.5-0.3,1-0.5,1.6-0.8c0.6-0.2,1.1-0.3,1.4-0.2
				c0.5,1.3,0.6,2.5,0.1,3.6c0.9,1,1.4,2.2,1.4,3.6c0,1-0.1,1.9-0.4,2.6c-0.2,0.8-0.5,1.4-0.9,1.8c-0.4,0.5-0.9,0.8-1.4,1.2
				c-0.6,0.3-1.1,0.5-1.6,0.7c-0.5,0.1-1.1,0.2-1.8,0.3c0.6,0.5,0.9,1.4,0.9,2.5v3.7c0,0.2,0.1,0.4,0.2,0.5c0.1,0.1,0.4,0.2,0.7,0.1
				c2.7-0.9,4.9-2.5,6.6-4.9c1.7-2.3,2.6-5,2.6-7.9C27.2,11.6,26.5,9.3,25.3,7.3z"/>
		</g>
	</g>
</g>
<g id="Illustrations">
</g>
</svg>
