<svg width="120" height="139" viewBox="0 0 120 139" fill="none" xmlns="http://www.w3.org/2000/svg">
<path d="M119.244 0H0.756441C0.33867 0 0 0.338668 0 0.756439V137.964C0 138.381 0.33867 138.72 0.75644 138.72H119.244C119.661 138.72 120 138.381 120 137.964V0.756441C120 0.33867 119.661 0 119.244 0Z" fill="#7BC876"/>
<path d="M18.6768 15.0002C16.6464 15.0002 15 16.6466 15 18.677V120.165C15 122.195 16.6464 123.841 18.6768 123.841H56.3244C58.3548 123.841 60.0012 122.195 60.0012 120.165V108.677C60.0012 106.647 61.6476 105 63.678 105H101.326C103.356 105 105.002 103.354 105.002 101.323V18.6758C105.002 16.6454 103.356 14.999 101.326 14.999H18.6768V15.0002Z" fill="#272A2F"/>
<path d="M90 30.6075V89.3943C90 89.7291 89.7288 90.0003 89.394 90.0003H45.606C45.2712 90.0003 45 90.2715 45 90.6063V108.234C45 108.569 44.7288 108.84 44.394 108.84H30.606C30.2712 108.84 30 108.569 30 108.234V30.7251C30 30.3915 30.27 30.1203 30.6048 30.1191L89.3928 30.0015C89.7276 30.0015 90 30.2727 90 30.6075Z" fill="white"/>
<path d="M74.3917 44.9998H45.6085C45.2725 44.9998 45.0001 45.2722 45.0001 45.6082V74.3913C45.0001 74.7274 45.2725 74.9998 45.6085 74.9998H74.3917C74.7277 74.9998 75.0001 74.7274 75.0001 74.3913V45.6082C75.0001 45.2722 74.7277 44.9998 74.3917 44.9998Z" fill="#272A2F"/>
</svg>
